<?xml version="1.0" encoding="UTF-8" standalone="no"?>
<svg
   xmlns:dc="http://purl.org/dc/elements/1.1/"
   xmlns:cc="http://creativecommons.org/ns#"
   xmlns:rdf="http://www.w3.org/1999/02/22-rdf-syntax-ns#"
   xmlns:svg="http://www.w3.org/2000/svg"
   xmlns="http://www.w3.org/2000/svg"
   xmlns:xlink="http://www.w3.org/1999/xlink"
   xmlns:sodipodi="http://sodipodi.sourceforge.net/DTD/sodipodi-0.dtd"
   xmlns:inkscape="http://www.inkscape.org/namespaces/inkscape"
   id="svg8"
   version="1.1"
   viewBox="0 0 135.46666 135.46667"
   height="512"
   width="512"
   sodipodi:docname="Tigre_Discord.svg"
   inkscape:version="0.92.4 (5da689c313, 2019-01-14)">
  <sodipodi:namedview
     pagecolor="#ffffff"
     bordercolor="#666666"
     borderopacity="1"
     objecttolerance="10"
     gridtolerance="10"
     guidetolerance="10"
     inkscape:pageopacity="0"
     inkscape:pageshadow="2"
     inkscape:window-width="1920"
     inkscape:window-height="1017"
     id="namedview33"
     showgrid="false"
     inkscape:zoom="1.65625"
     inkscape:cx="256"
     inkscape:cy="256"
     inkscape:window-x="-8"
     inkscape:window-y="-8"
     inkscape:window-maximized="1"
     inkscape:current-layer="svg8" />
  <defs
     id="defs2">
    <linearGradient
       id="linearGradient1054">
      <stop
         id="stop1050"
         offset="0"
         style="stop-color:#ee8706;stop-opacity:0.93333334" />
      <stop
         style="stop-color:#ffbb00;stop-opacity:1"
         offset="0.48031342"
         id="stop1073" />
      <stop
         id="stop1052"
         offset="1"
         style="stop-color:#ee8706;stop-opacity:0.93333334" />
    </linearGradient>
    <linearGradient
       y2="121.1833"
       x2="115.97974"
       y1="13.353114"
       x1="20.767296"
       gradientUnits="userSpaceOnUse"
       id="linearGradient1077"
       xlink:href="#linearGradient1054" />
  </defs>
  <metadata
     id="metadata5">
    <rdf:RDF>
      <cc:Work
         rdf:about="">
        <dc:format>image/svg+xml</dc:format>
        <dc:type
           rdf:resource="http://purl.org/dc/dcmitype/StillImage" />
        <dc:title />
      </cc:Work>
    </rdf:RDF>
  </metadata>
  <g
     style="display:inline"
     id="layer3">
    <g
       id="g1124">
      <path
         style="opacity:1;fill:#000000;fill-opacity:1;stroke:none;stroke-width:1.5175159;stroke-linecap:round;stroke-miterlimit:4;stroke-dasharray:none;stroke-opacity:1;paint-order:stroke fill markers"
         d="M 65.207547,156.25649 V 118.7114 l 7.674323,-9.2123 c 9.472755,-11.371154 35.34906,-37.446552 45.29284,-45.641332 7.40404,-6.101757 19.46804,-15.308312 29.24684,-22.319526 l 5.23287,-3.751868 34.79033,0.15587 34.79033,0.155869 -17.67291,12.679245 c -23.61748,16.944127 -46.73176,34.302705 -56.33575,42.30756 -9.51013,7.926612 -26.82122,25.088412 -35.27973,34.975462 -9.92601,11.60239 -20.456155,26.02062 -43.408708,59.43664 l -4.330435,6.30456 z"
         id="path931"
         transform="scale(0.26458333)" />
      <path
         style="opacity:1;fill:#000000;fill-opacity:1;stroke:none;stroke-width:1.5175159;stroke-linecap:round;stroke-miterlimit:4;stroke-dasharray:none;stroke-opacity:1;paint-order:stroke fill markers"
         d="M 65.207547,260.73657 V 236.06975 L 85.283019,214.67463 C 167.25427,127.31507 213.8572,88.514757 272.30189,58.967851 c 22.5541,-11.402302 38.99294,-18.252197 41.46582,-17.278387 0.94963,0.373962 0.70998,0.788964 -1.75103,3.032219 -1.5682,1.429427 -9.58329,7.711229 -17.81132,13.959558 -42.33581,32.149586 -71.89428,57.417099 -91.03942,77.823379 -5.15427,5.49377 -7.51936,7.58717 -8.9193,7.89464 -1.04782,0.23014 -2.32158,0.62353 -2.8306,0.8742 -0.50901,0.25066 -3.64246,1.63388 -6.96321,3.07381 -7.38745,3.20331 -13.05062,6.33805 -19.05443,10.54721 -4.74779,3.3286 -5.13411,3.87909 -9.50445,13.54326 -0.67577,1.49434 -2.0661,4.5699 -3.08961,6.83457 -1.02352,2.26468 -1.86094,4.37403 -1.86094,4.68744 0,0.31342 -0.25626,1.04163 -0.56947,1.61825 -0.31321,0.57663 -1.68969,4.17294 -3.05883,7.99181 -1.36915,3.81887 -2.71493,7.48679 -2.99061,8.15094 -0.78903,1.90082 -35.15726,40.35245 -52.765767,59.03504 -7.990874,8.47831 -23.161221,22.86242 -25.481596,24.16097 -0.750675,0.4201 -0.86958,-2.88625 -0.86958,-24.18019 z"
         id="path933"
         transform="scale(0.26458333)" />
      <path
         style="opacity:1;fill:#000000;fill-opacity:1;stroke:none;stroke-width:1.5175159;stroke-linecap:round;stroke-miterlimit:4;stroke-dasharray:none;stroke-opacity:1;paint-order:stroke fill markers"
         d="m 339.32075,82.50664 c 0,-7.784954 12.0771,-31.910958 21.25818,-42.466748 l 1.98711,-2.284636 15.21267,0.171429 15.21267,0.171428 -6.09687,4.528302 c -9.85485,7.319445 -18.63835,15.095943 -32.87184,29.103179 -7.35546,7.238535 -13.67244,13.160972 -14.03774,13.160972 -0.37091,0 -0.66418,-1.052626 -0.66418,-2.383926 z"
         id="path935"
         transform="scale(0.26458333)" />
      <path
         style="opacity:1;fill:#000000;fill-opacity:1;stroke:none;stroke-width:1.5175159;stroke-linecap:round;stroke-miterlimit:4;stroke-dasharray:none;stroke-opacity:1;paint-order:stroke fill markers"
         d="m 344.45283,155.80841 c -8.67572,-5.33014 -18.9464,-10.0376 -26.86792,-12.31463 -1.49434,-0.42955 -3.39623,-1.00946 -4.22642,-1.2887 -0.83019,-0.27924 -3.00377,-0.77192 -4.83019,-1.09485 -6.73405,-1.19065 -6.71531,-1.12959 -1.71067,-5.57414 19.90315,-17.67568 41.65033,-31.9988 84.72954,-55.804529 11.29057,-6.239208 26.09811,-14.527061 32.90566,-18.417451 l 12.37736,-7.073435 1.32476,1.589096 c 1.22555,1.470096 5.24795,9.065164 6.27757,11.853248 0.93722,2.53789 2.35993,9.393811 2.35993,11.372299 0,1.812252 -0.42864,2.389363 -3.4717,4.674172 -6.48044,4.865699 -24.51276,19.42345 -58.60246,47.31062 -18.69929,15.29699 -34.18608,27.87889 -34.4151,27.95976 -0.22902,0.0809 -2.86168,-1.35529 -5.85036,-3.19146 z"
         id="path937"
         transform="scale(0.26458333)" />
      <path
         style="opacity:1;fill:#000000;fill-opacity:1;stroke:none;stroke-width:1.5175159;stroke-linecap:round;stroke-miterlimit:4;stroke-dasharray:none;stroke-opacity:1;paint-order:stroke fill markers"
         d="m 382.78031,255.64824 c -0.0299,-1.96117 -2.45231,-16.0112 -3.83259,-22.22937 -0.47913,-2.15849 -0.69309,-4.07503 -0.47547,-4.25898 0.21762,-0.18394 2.32145,-1.87686 4.67517,-3.76202 2.35373,-1.88517 9.30146,-8.79882 15.4394,-15.36367 6.13794,-6.56485 16.4917,-17.64175 23.00835,-24.61533 6.51665,-6.97359 14.83951,-15.80378 18.49525,-19.62264 l 6.64679,-6.9434 0.0276,27.55994 0.0276,27.55993 -7.39622,6.89177 c -4.06793,3.79048 -9.42508,8.61823 -11.9048,10.72833 -8.80911,7.4961 -23.84628,16.40987 -36.84992,21.84399 -7.04365,2.94348 -7.84658,3.16936 -7.8612,2.21145 z"
         id="path939"
         transform="scale(0.26458333)" />
      <path
         style="opacity:1;fill:#000000;fill-opacity:1;stroke:none;stroke-width:1.5175159;stroke-linecap:round;stroke-miterlimit:4;stroke-dasharray:none;stroke-opacity:1;paint-order:stroke fill markers"
         d="m 377.32375,411.3693 c -2.50967,-2.40104 -7.80778,-7.35414 -11.77358,-11.00688 -11.66299,-10.74234 -12.0216,-11.0898 -11.72276,-11.35825 0.15719,-0.14121 8.43674,-4.68652 18.39901,-10.10071 36.94814,-20.08017 42.62453,-23.96155 72.22843,-49.38803 l 2.34796,-2.01664 -0.15612,33.02031 -0.15612,33.02031 -6.33963,2.38451 c -3.48679,1.31149 -13.40377,4.82042 -22.03773,7.79764 -8.63396,2.97722 -19.91751,6.90348 -25.07456,8.72503 -5.15704,1.82155 -9.77591,3.30658 -10.26415,3.30007 -0.48824,-0.007 -2.94108,-1.97632 -5.45075,-4.37736 z"
         id="path941"
         transform="scale(0.26458333)" />
      <path
         style="opacity:1;fill:#000000;fill-opacity:1;stroke:none;stroke-width:1.5175159;stroke-linecap:round;stroke-miterlimit:4;stroke-dasharray:none;stroke-opacity:1;paint-order:stroke fill markers"
         d="m 300.71228,420.2522 c 7.89929,-5.58539 23.13039,-14.81352 38.04857,-23.05264 l 7.59104,-4.19243 0.71085,4.91645 c 0.39096,2.70405 0.71084,6.04369 0.71084,7.42143 0,1.37774 0.25236,3.80893 0.5608,5.40263 0.30845,1.5937 0.71253,5.0033 0.89796,7.57689 l 0.33716,4.67924 h -26.37435 -26.37436 z"
         id="path943"
         transform="scale(0.26458333)" />
      <path
         style="opacity:1;fill:#000000;fill-opacity:1;stroke:none;stroke-width:1.5175159;stroke-linecap:round;stroke-miterlimit:4;stroke-dasharray:none;stroke-opacity:1;paint-order:stroke fill markers"
         d="m 158.19662,420.3925 c 23.17895,-22.34247 42.29085,-40.1384 56.45941,-52.57185 29.88186,-26.22248 60.88765,-48.27886 83.8041,-59.61516 4.80213,-2.37551 5.3997,-2.53818 6.0539,-1.648 0.94976,1.29238 3.88715,4.91747 9.3688,11.56225 l 4.44886,5.39286 2.43324,-0.38909 2.43325,-0.38909 -2.29021,2.5875 c -6.97072,7.87562 -49.90222,51.69701 -63.10802,64.41613 -16.40206,15.79759 -20.73893,19.75342 -30.74466,28.04338 l -6.3032,5.22234 h -32.63225 -32.63225 z"
         id="path945"
         transform="scale(0.26458333)" />
      <path
         style="opacity:1;fill:#000000;fill-opacity:1;stroke:none;stroke-width:1.5175159;stroke-linecap:round;stroke-miterlimit:4;stroke-dasharray:none;stroke-opacity:1;paint-order:stroke fill markers"
         d="m 96.301887,420.54197 c -10.683796,-3.49369 -18.542773,-9.64532 -24.66857,-19.30938 l -0.979188,-1.54477 7.088029,-7.0207 c 8.107505,-8.03048 15.126286,-14.01753 30.946072,-26.39712 29.49544,-23.08134 39.25169,-31.76372 49.58929,-44.13102 3.10019,-3.7089 5.21771,-5.76693 5.61419,-5.45649 0.93555,0.73249 10.20735,3.43229 15.42904,4.49269 7.58609,1.54055 16.32761,2.33247 17.25459,1.56314 0.44476,-0.36912 2.37808,-2.617 4.29627,-4.99529 1.91819,-2.37829 4.91811,-6.03774 6.66649,-8.13211 1.74838,-2.09437 3.17888,-4.14841 3.17888,-4.56453 0,-0.41613 -1.83396,-1.37991 -4.07547,-2.14173 -5.32396,-1.80948 -12.66169,-5.50974 -17.88138,-9.01722 -5.05051,-3.39379 -5.72405,-4.28947 -4.51918,-6.00967 l 0.88182,-1.25897 3.28767,1.65162 c 1.80822,0.9084 5.18956,2.4192 7.51409,3.35735 2.32453,0.93814 4.76981,1.93688 5.43396,2.21942 1.80104,0.76619 11.82725,3.99858 13.73585,4.42835 0.91321,0.20563 1.66038,0.5899 1.66038,0.85393 0,0.62409 -35.33783,44.78777 -45.21701,56.51022 -17.95697,21.30745 -24.55549,27.65375 -46.55658,44.77704 -7.80377,6.07362 -16.76981,13.30859 -19.92453,16.07769 l -5.735845,5.03475 z"
         id="path947"
         transform="scale(0.26458333)" />
      <path
         style="opacity:1;fill:#000000;fill-opacity:1;stroke:none;stroke-width:1.5175159;stroke-linecap:round;stroke-miterlimit:4;stroke-dasharray:none;stroke-opacity:1;paint-order:stroke fill markers"
         d="m 334.79245,165.87095 c -4.1429,-2.39506 -16.63182,-7.26954 -25.0566,-9.7797 -2.15849,-0.64312 -4.73962,-1.4125 -5.73585,-1.70974 -1.58415,-0.47265 -8.00626,-1.95635 -12.32016,-2.84631 -1.40607,-0.29008 -1.36202,-0.39119 1.38614,-3.1813 l 2.83836,-2.8817 2.84029,1.01158 c 1.56215,0.55636 3.65537,1.35132 4.6516,1.76657 0.99622,0.41524 2.49056,1.01483 3.32075,1.33242 8.79012,3.36258 27.35541,13.43691 30.68464,16.6508 1.19843,1.15692 -0.35391,0.94117 -2.60917,-0.36262 z"
         id="path951"
         transform="scale(0.26458333)" />
      <path
         style="opacity:1;fill:#000000;fill-opacity:1;stroke:none;stroke-width:1.5175159;stroke-linecap:round;stroke-miterlimit:4;stroke-dasharray:none;stroke-opacity:1;paint-order:stroke fill markers"
         d="m 209.89303,267.81091 c -9.55863,-3.63079 -15.0473,-11.83265 -15.13623,-22.61846 -0.0458,-5.55797 0.88779,-8.96619 3.6712,-13.40201 2.60598,-4.15306 4.86413,-6.2327 9.09257,-8.37379 3.09857,-1.56896 4.11921,-1.77137 8.93226,-1.77137 4.76389,0 5.84789,0.20989 8.79075,1.70208 8.56354,4.3422 12.85073,11.52934 12.85073,21.54321 0,6.90516 -1.45605,11.19736 -5.49238,16.19067 -5.48934,6.79079 -15.0719,9.63054 -22.7089,6.72967 z"
         id="path953"
         transform="scale(0.26458333)" />
      <path
         style="opacity:1;fill:#000000;fill-opacity:1;stroke:none;stroke-width:1.5175159;stroke-linecap:round;stroke-miterlimit:4;stroke-dasharray:none;stroke-opacity:1;paint-order:stroke fill markers"
         d="m 291.01887,268.32872 c -0.83019,-0.34709 -2.59366,-1.07587 -3.91883,-1.61952 -3.16582,-1.29877 -8.20277,-6.42464 -9.93553,-10.11092 -3.18087,-6.76701 -3.73872,-12.13391 -1.89233,-18.20542 3.12581,-10.27864 10.42364,-16.46582 19.9731,-16.9334 6.18756,-0.30297 10.56604,1.34967 15.14354,5.71587 6.00306,5.72594 8.64232,13.68549 7.27774,21.94835 -1.51207,9.15597 -6.78569,15.64352 -15.2233,18.72757 -3.51685,1.28546 -8.94878,1.51247 -11.42439,0.47747 z"
         id="path955"
         transform="scale(0.26458333)" />
      <g
         id="g1048"
         style="fill:url(#linearGradient1077);fill-opacity:1;stroke:none">
        <path
           transform="scale(0.26458333)"
           id="path957"
           d="m 65.207547,97.744845 c 0,-20.376821 0.401368,-25.484075 2.362491,-30.061826 6.244465,-14.576138 14.685898,-22.974073 27.524302,-27.382472 6.31196,-2.167373 10.81294,-2.495067 34.33505,-2.49976 l 22.86334,-0.0046 -8.07089,5.830344 C 130.76335,53.348863 118.62034,63.021843 110.57803,70.426824 96.729782,83.177632 77.453698,103.40383 67.169811,115.97462 l -1.962264,2.39863 z"
           style="opacity:1;fill:url(#linearGradient1077);fill-opacity:1;stroke:none;stroke-width:1.5175159;stroke-linecap:round;stroke-miterlimit:4;stroke-dasharray:none;stroke-opacity:1;paint-order:stroke fill markers" />
        <path
           transform="scale(0.26458333)"
           id="path959"
           d="m 65.207547,214.69746 v -20.53273 l 8.868411,-12.82576 c 19.082025,-27.597 27.750282,-39.46542 36.928312,-50.56161 6.9459,-8.39756 28.88116,-30.41957 37.22215,-37.369355 7.38152,-6.150359 38.70137,-29.664547 56.75471,-42.61008 7.30566,-5.238679 14.28596,-10.307157 15.51177,-11.263284 l 2.22874,-1.738415 h 69.84151 69.84151 l -2.26551,2.507659 c -5.52491,6.115404 -16.42265,25.745246 -19.48059,35.089926 -1.44209,4.406834 -1.79018,9.496755 -0.64946,9.496755 0.3786,0 3.29935,-2.519847 6.49057,-5.599661 18.7406,-18.086364 22.70505,-21.811288 28.47455,-26.754226 3.50375,-3.001782 9.12837,-7.546386 12.49917,-10.099119 l 6.12872,-4.641334 5.91593,0.0046 c 9.93762,0.0077 17.11962,1.657548 24.33102,5.589444 5.27737,2.877401 13.03439,9.644771 12.34107,10.766582 -0.29608,0.479082 -7.03954,4.308943 -39.51088,22.439706 -37.01613,20.668395 -55.58067,32.015902 -70.63037,43.172562 -8.78836,6.515 -19.22431,15.17074 -21.72566,18.01962 l -1.9228,2.18994 -4.93606,-0.64172 -4.93606,-0.64172 -1.76396,1.74119 c -1.49051,1.47126 -1.64285,1.88712 -0.98268,2.68258 0.42971,0.51778 1.2235,0.95104 1.76396,0.96281 0.54048,0.0118 1.56832,0.35138 2.2841,0.75471 1.28227,0.72254 1.26451,0.77441 -1.20755,3.52665 l -2.50896,2.79332 -7.54717,-1.07522 c -14.55951,-2.07425 -25.66545,-2.63986 -36.0789,-1.83742 -17.14249,1.32097 -27.89044,3.09272 -41.81033,6.89223 -4.27897,1.16797 -14.43334,4.48454 -15.99756,5.22504 -0.66416,0.3144 -2.56604,1.09379 -4.22642,1.73198 -1.66038,0.63818 -4.86025,2.04202 -7.11082,3.11966 -8.72599,4.17822 -3.47164,-0.10456 8.36158,-6.81548 5.18571,-2.94095 14.28126,-7.32379 17.93174,-8.6407 1.25227,-0.45176 3.15415,-1.21266 4.22642,-1.6909 2.86911,-1.27963 10.04309,-3.83944 12.8175,-4.5735 1.3283,-0.35145 2.76391,-0.86457 3.19026,-1.14026 0.93893,-0.60717 0.36699,-2.35862 -0.99715,-3.05356 -1.67953,-0.85563 -17.13904,1.37799 -22.95283,3.31626 -1.45558,0.48528 -2.74617,0.78267 -2.86797,0.66086 -0.12181,-0.1218 5.82384,-6.18461 13.21254,-13.47291 22.23058,-21.92849 42.53259,-39.07118 83.16986,-70.227309 15.21738,-11.666985 21.13208,-16.615001 21.13208,-17.678299 0,-3.912346 -39.71015,14.193552 -68.22642,31.107926 -26.27666,15.585961 -52.36666,35.358772 -81.81132,62.002282 -14.42945,13.05675 -59.7355,58.47009 -81.464074,81.65701 -9.56908,10.21132 -17.501455,18.56604 -17.627502,18.56604 -0.126047,0 -0.229177,-9.23973 -0.229177,-20.53273 z"
           style="opacity:1;fill:url(#linearGradient1077);fill-opacity:1;stroke:none;stroke-width:1.5175159;stroke-linecap:round;stroke-miterlimit:4;stroke-dasharray:none;stroke-opacity:1;paint-order:stroke fill markers" />
        <path
           transform="scale(0.26458333)"
           id="path961"
           d="m 68.61954,395.10348 c -3.441771,-8.30094 -3.411993,-7.76657 -3.411993,-61.22941 0,-28.28882 0.22654,-49.0657 0.532922,-48.87635 0.718687,0.44418 12.997376,-10.84053 23.014248,-21.15119 11.350633,-11.68355 45.552023,-49.44784 52.981133,-58.5004 2.02803,-2.47121 2.4573,-2.23355 1.28727,0.71268 -0.37124,0.93482 -0.89578,2.51477 -1.16565,3.511 -0.26986,0.99623 -0.93865,3.30566 -1.4862,5.13208 -0.54755,1.82641 -1.21882,4.27169 -1.49172,5.43396 -0.2729,1.16226 -1.03907,4.28679 -1.70261,6.9434 -1.35988,5.44455 -2.74844,12.06712 -3.70284,17.66037 -0.35415,2.07547 -0.91297,5.33585 -1.24183,7.24529 -1.18904,6.90399 -2.37354,20.5613 -2.53003,29.17121 l -0.15982,8.79386 1.95734,2.67784 c 3.44557,4.71389 11.14394,12.03856 16.2028,15.41628 5.20229,3.47348 13.87194,8.08475 15.20835,8.08913 0.43874,10e-4 -0.10465,0.8906 -1.20754,1.97591 -1.10289,1.08532 -4.28433,4.54947 -7.06987,7.69812 -8.82103,9.97091 -18.15464,18.20818 -41.72784,36.82645 -18.253631,14.41683 -24.130769,19.3667 -34.009531,28.64368 -4.259959,4.00045 -7.960602,7.35238 -8.223651,7.44873 -0.263048,0.0964 -1.186871,-1.53384 -2.052938,-3.62264 z"
           style="opacity:1;fill:url(#linearGradient1077);fill-opacity:1;stroke:none;stroke-width:1.5175159;stroke-linecap:round;stroke-miterlimit:4;stroke-dasharray:none;stroke-opacity:1;paint-order:stroke fill markers" />
        <path
           transform="scale(0.26458333)"
           id="path963"
           d="m 178.73334,285.66179 c -2.1303,-2.14941 -3.72441,-4.05688 -3.54246,-4.23883 0.18195,-0.18195 2.19444,0.75822 4.47219,2.08926 2.27776,1.33104 4.377,2.49862 4.66498,2.59461 0.55804,0.18602 -0.71762,3.46298 -1.34807,3.46298 -0.20534,0 -2.11633,-1.75861 -4.24664,-3.90802 z"
           style="opacity:1;fill:url(#linearGradient1077);fill-opacity:1;stroke:none;stroke-width:1.5175159;stroke-linecap:round;stroke-miterlimit:4;stroke-dasharray:none;stroke-opacity:1;paint-order:stroke fill markers" />
        <path
           transform="scale(0.26458333)"
           id="path965"
           d="m 103.99249,422.17088 -4.384858,-0.67654 3.781088,-3.26376 c 2.0796,-1.79507 11.79619,-9.67002 21.59241,-17.4999 19.57878,-15.64881 28.41307,-23.82809 39.52545,-36.59483 8.41822,-9.67149 29.60715,-35.6607 42.82617,-52.5283 4.94467,-6.30944 9.20129,-11.70784 9.45918,-11.99645 0.26139,-0.29253 3.36289,0.0783 7.00829,0.83796 7.0311,1.46517 10.4022,1.98682 19.82242,3.06739 7.71027,0.88442 29.38348,0.34161 37.13208,-0.92997 11.2709,-1.84961 11.55331,-1.90979 20.5283,-4.37465 5.23784,-1.4385 14.83073,-4.83664 20.83019,-7.37879 3.12979,-1.32619 15.28261,-7.58868 16.78948,-8.65182 4.96443,-3.50256 -0.28757,2.97558 -6.15147,7.58759 -3.99228,3.13996 -8.09137,5.97303 -10.9399,7.56105 -3.91327,2.18162 -8.46423,4.31542 -9.20387,4.31542 -0.45032,0 -1.07688,0.22446 -1.39236,0.49879 -0.31547,0.27434 -1.79622,0.86667 -3.29056,1.31631 -1.49434,0.44963 -2.99424,1.02178 -3.33311,1.27143 -0.33887,0.24966 -4.00679,2.1896 -8.15094,4.31098 -23.00933,11.7784 -55.00676,34.7762 -83.30464,59.87432 -14.5241,12.88179 -48.42392,44.56657 -55.22064,51.61248 l -2.38668,2.47418 -23.57558,-0.0782 c -13.97447,-0.0464 -25.36131,-0.3537 -27.96045,-0.75472 z"
           style="opacity:1;fill:url(#linearGradient1077);fill-opacity:1;stroke:none;stroke-width:1.5175159;stroke-linecap:round;stroke-miterlimit:4;stroke-dasharray:none;stroke-opacity:1;paint-order:stroke fill markers" />
        <path
           transform="scale(0.26458333)"
           id="path967"
           d="m 377.96226,228.92961 c 0,-0.54431 -3.4603,-13.79337 -4.26781,-16.34093 -2.73397,-8.6252 -5.52148,-17.11903 -5.94439,-18.11321 -0.28253,-0.66415 -1.94163,-4.87547 -3.6869,-9.35849 -4.83674,-12.42404 -9.85056,-22.54183 -12.00666,-24.22923 l -1.8463,-1.44495 39.08358,-31.80436 c 21.49597,-17.4924 43.15905,-35.040869 48.14018,-38.996602 l 9.05661,-7.19224 0.15545,38.360052 0.15545,38.36006 -2.26866,2.56976 c -7.99191,9.0526 -56.83284,60.34867 -60.26622,63.2957 -6.04956,5.19262 -6.30433,5.39041 -6.30433,4.89444 z"
           style="opacity:1;fill:url(#linearGradient1077);fill-opacity:1;stroke:none;stroke-width:1.5175159;stroke-linecap:round;stroke-miterlimit:4;stroke-dasharray:none;stroke-opacity:1;paint-order:stroke fill markers" />
        <path
           transform="scale(0.26458333)"
           id="path969"
           d="m 222.50734,421.89802 c 0.65492,-0.60816 4.71686,-4.07231 9.02653,-7.69811 4.30966,-3.6258 13.14352,-11.64384 19.6308,-17.81787 11.03025,-10.49765 56.73945,-56.74478 67.37778,-68.17072 4.58884,-4.92858 4.90998,-5.15078 8.09906,-5.60389 8.45208,-1.20087 21.14926,-4.32553 24.15094,-5.94333 0.49812,-0.26847 2.80755,-1.347 5.13208,-2.39675 5.38454,-2.43164 14.68953,-8.61925 19.16723,-12.74578 1.90801,-1.75837 4.96461,-5.09174 6.79245,-7.40747 l 3.32334,-4.21043 -0.012,-6.6575 c -0.007,-3.66162 -0.2529,-8.42353 -0.54738,-10.58202 -0.29448,-2.15849 -0.71412,-6.64884 -0.93255,-9.97856 l -0.39712,-6.05402 5.01998,-2.01728 c 7.05094,-2.83343 21.10773,-10.12793 27.44685,-14.24301 6.71122,-4.35664 12.00889,-8.59394 20.37356,-16.29565 3.61572,-3.32914 7.48742,-6.81994 8.60377,-7.75732 l 2.02975,-1.70434 -0.0184,56.34585 -0.0184,56.34584 -6.73767,5.73585 c -26.28426,22.37606 -29.8689,24.7282 -78.41535,51.45384 l -8.20864,4.51899 -3.26306,-2.9162 c -1.79469,-1.6039 -3.50566,-2.92232 -3.80217,-2.92981 -0.29895,-0.008 -0.39301,2.11786 -0.21116,4.77108 l 0.32796,4.7847 -7.9398,4.37685 c -11.80032,6.50499 -28.20737,16.3945 -35.57774,21.44484 l -6.50588,4.45797 h -37.55282 c -36.43138,0 -37.51726,-0.033 -36.36204,-1.10575 z"
           style="opacity:1;fill:url(#linearGradient1077);fill-opacity:1;stroke:none;stroke-width:1.5175159;stroke-linecap:round;stroke-miterlimit:4;stroke-dasharray:none;stroke-opacity:1;paint-order:stroke fill markers" />
        <path
           transform="scale(0.26458333)"
           id="path971"
           d="m 443.75109,471.14072 c -1.5067,-1.40362 -3.81614,-3.48559 -5.13207,-4.62659 -1.31593,-1.14101 -4.70204,-4.14708 -7.52468,-6.68017 -2.82264,-2.53308 -6.20896,-5.53916 -7.52515,-6.68016 -1.31618,-1.141 -3.76147,-3.3055 -5.43396,-4.80998 -1.67249,-1.50449 -4.26353,-3.79154 -5.75787,-5.08233 -6.44897,-5.57055 -18.58024,-16.61014 -25.20917,-22.94061 l -4.38998,-4.19233 17.06373,-5.84902 c 9.38505,-3.21697 23.31278,-8.08067 30.95051,-10.80823 7.63774,-2.72756 14.36227,-5.10102 14.9434,-5.27435 0.99881,-0.29791 1.0566,1.86824 1.0566,39.60433 0,21.95571 -0.0679,39.91318 -0.15094,39.90548 -0.083,-0.008 -1.3837,-1.16242 -2.89042,-2.56604 z"
           style="opacity:1;fill:url(#linearGradient1077);fill-opacity:1;stroke:none;stroke-width:1.5175159;stroke-linecap:round;stroke-miterlimit:4;stroke-dasharray:none;stroke-opacity:1;paint-order:stroke fill markers" />
      </g>
    </g>
  </g>
  <path
     style="opacity:1;fill:#ffffff;fill-opacity:1;stroke:none;stroke-width:0.68459368;stroke-linecap:butt;stroke-linejoin:round;stroke-miterlimit:4;stroke-dasharray:none;stroke-opacity:1;paint-order:normal"
     d="m 322.69435,323.41776 c 0.37197,-0.60188 -0.0605,-0.6815 -1.95909,-0.36073 l -2.43643,0.41163 -7.13052,-8.79726 c -5.73958,-7.08119 -7.35507,-8.72599 -8.28163,-8.43191 -0.6907,0.21922 -1.00213,0.1243 -0.77863,-0.23733 0.20486,-0.33148 3.28963,-1.74691 6.85504,-3.14542 8.76608,-3.43843 13.45502,-5.87083 19.18785,-9.95375 4.45096,-3.16997 12.60238,-10.5547 12.14993,-11.00716 -0.10694,-0.10693 -2.47686,1.07505 -5.26652,2.62662 -15.2108,8.46004 -33.42025,14.75146 -51.56265,17.81505 -6.74947,1.13973 -10.25971,1.33148 -25.05661,1.36872 -13.38248,0.0337 -18.48256,-0.17708 -22.94339,-0.9481 -3.15472,-0.54528 -8.58868,-1.48562 -12.07547,-2.08966 -3.4868,-0.60404 -6.4773,-1.28761 -6.64557,-1.51905 -0.16827,-0.23144 -3.42864,-1.42733 -7.24528,-2.65753 -7.66193,-2.46963 -15.31694,-5.51292 -20.75899,-8.25283 -2.82792,-1.42378 -3.66,-1.62522 -4.06622,-0.98438 -0.39978,0.63067 -0.51274,0.59241 -0.51998,-0.17611 -0.006,-0.59973 -1.70007,-1.87032 -4.35403,-3.26493 l -4.34479,-2.28312 2.29719,2.80341 c 1.26345,1.54187 3.2186,3.37287 4.34478,4.06889 1.12618,0.69602 2.0476,1.50674 2.0476,1.80162 0,1.57499 14.62196,9.90896 22.20723,12.65729 2.08567,0.75569 3.9124,1.56858 4.05939,1.80643 0.34506,0.55831 -2.36195,4.28981 -8.74215,12.05069 l -5.11705,6.22437 -5.85463,-0.35668 c -6.66203,-0.40587 -17.21365,-2.62204 -24.97489,-5.24551 -5.56693,-1.88174 -12.07801,-5.20671 -18.1062,-9.24618 -4.28314,-2.87012 -13.40252,-11.58017 -16.43493,-15.69722 l -2.14191,-2.90804 0.70293,-12.74771 c 0.38662,-7.01123 1.09932,-15.77151 1.5838,-19.46728 1.79522,-13.69474 6.19481,-34.10165 10.02314,-46.49102 1.02506,-3.31734 1.94993,-6.479 2.05525,-7.02592 0.10533,-0.54692 0.48314,-1.50066 0.83957,-2.11943 0.35644,-0.61875 2.28555,-5.56513 4.28691,-10.99193 5.78711,-15.69205 10.64356,-25.87197 13.87128,-29.07648 3.59365,-3.5678 13.47892,-9.33632 23.2517,-13.56845 4.31698,-1.86948 8.74848,-3.84431 9.84777,-4.3885 1.09929,-0.5442 2.45779,-1.03469 3.01887,-1.08998 0.56108,-0.0553 3.73713,-0.68879 7.05789,-1.40776 3.32075,-0.71897 8.29846,-1.5206 11.06157,-1.7814 5.46652,-0.51596 7.65541,0.0407 7.65541,1.94701 0,0.88176 -1.67147,1.69019 -8.15095,3.94235 -10.22225,3.55308 -18.46193,7.06183 -26.44867,11.26277 -6.38486,3.35838 -16.02469,9.30242 -15.66677,9.66034 0.11026,0.11026 3.58958,-1.25436 7.73182,-3.0325 18.59581,-7.98258 36.50286,-12.37649 59.44451,-14.58609 12.25911,-1.18072 23.76495,-0.88542 38.24803,0.98163 5.43123,0.70016 10.23138,1.13624 10.66701,0.96907 0.43564,-0.16717 0.91848,0.0255 1.07299,0.42815 0.15451,0.40264 2.01096,1.07902 4.12544,1.50304 10.36169,2.07789 26.50611,7.45798 36.69442,12.22834 4.93852,2.31231 6.89879,2.67775 4.53998,0.84637 -5.38339,-4.17966 -22.31617,-12.99226 -33.16347,-17.25981 -6.83333,-2.68836 -7.31118,-2.79337 -8.40427,-1.84685 -1.08072,0.93582 -1.13426,0.93564 -0.79295,-0.003 0.27391,-0.75307 -0.21925,-1.24053 -1.95947,-1.93683 -3.19132,-1.27691 -3.44363,-1.99482 -1.43757,-4.09036 1.65782,-1.73176 1.87011,-1.78656 5.34897,-1.38092 1.99246,0.23232 4.30189,0.49008 5.13208,0.57279 0.83019,0.0827 1.91698,0.30252 2.41509,0.48847 0.49812,0.18594 3.07925,0.79951 5.73585,1.36348 6.38018,1.35446 15.56849,4.5497 22.57453,7.85031 8.45458,3.98304 19.15874,10.37456 20.99416,12.53575 3.46016,4.0743 11.49487,22.68555 17.50468,40.54705 5.30774,15.7749 8.74469,30.31123 11.7024,49.49438 0.35712,2.31625 0.8381,4.35398 1.06885,4.5283 0.23074,0.17432 0.50432,2.35468 0.60793,4.84524 0.10362,2.49057 0.44325,6.69476 0.75472,9.34266 0.31148,2.64789 0.56632,8.17113 0.56632,12.27388 v 7.45952 l -3.59651,4.40139 c -4.68567,5.73431 -8.59682,9.20344 -15.72966,13.95196 -10.63497,7.07999 -18.57955,10.17945 -33.80591,13.18886 -4.15094,0.82042 -8.06721,1.6914 -8.70281,1.93553 -0.85286,0.32757 -1.03059,0.2415 -0.67831,-0.32849 z m -97.09978,-56.78821 c 4.36666,-2.14969 7.88243,-5.827 10.32361,-10.79791 1.54988,-3.15598 1.66673,-3.92298 1.66673,-10.94107 0,-6.49567 -0.18457,-7.94681 -1.32475,-10.41556 -1.8379,-3.9795 -6.74355,-8.96373 -10.89057,-11.065 -3.09655,-1.56901 -4.08543,-1.76248 -8.91676,-1.74446 -4.6619,0.0174 -5.91662,0.2545 -8.83103,1.66891 -6.3482,3.08089 -11.38222,10.03992 -12.562,17.3657 -3.09191,19.199 14.26568,33.93864 30.53477,25.92939 z m 78.99014,0.33453 c 7.20527,-3.52522 11.74505,-9.778 13.11893,-18.06915 1.69474,-10.22739 -3.75017,-21.17554 -12.72279,-25.58192 -2.97845,-1.4627 -4.064,-1.66202 -8.82991,-1.62134 -4.18408,0.0357 -6.09486,0.34379 -8.30729,1.33935 -8.89407,4.00222 -15.2587,16.36577 -13.28035,25.79762 1.78395,8.50504 7.303,15.70082 14.34236,18.69968 4.74687,2.02223 10.84071,1.80293 15.67905,-0.56424 z"
     id="path4543"
     inkscape:connector-curvature="0"
     transform="scale(0.26458333)" />
</svg>
