<?xml version="1.0" encoding="UTF-8" standalone="no"?>
<svg
   xmlns:dc="http://purl.org/dc/elements/1.1/"
   xmlns:cc="http://creativecommons.org/ns#"
   xmlns:rdf="http://www.w3.org/1999/02/22-rdf-syntax-ns#"
   xmlns:svg="http://www.w3.org/2000/svg"
   xmlns="http://www.w3.org/2000/svg"
   xmlns:xlink="http://www.w3.org/1999/xlink"
   id="svg4"
   version="1.1"
   fill="none"
   viewBox="0 0 1024 1024"
   height="1024"
   width="1024">
  <metadata
     id="metadata10">
    <rdf:RDF>
      <cc:Work
         rdf:about="">
        <dc:format>image/svg+xml</dc:format>
        <dc:type
           rdf:resource="http://purl.org/dc/dcmitype/StillImage" />
        <dc:title></dc:title>
      </cc:Work>
    </rdf:RDF>
  </metadata>
  <defs
     id="defs8">
    <linearGradient
       id="linearGradient1279">
      <stop
         id="stop1275"
         offset="0"
         style="stop-color:#ee8706;stop-opacity:0.93333334" />
      <stop
         style="stop-color:#ffbb00;stop-opacity:1"
         offset="0.5"
         id="stop1283" />
      <stop
         id="stop1277"
         offset="1"
         style="stop-color:#ee8706;stop-opacity:0.93333334" />
    </linearGradient>
    <linearGradient
       gradientUnits="userSpaceOnUse"
       y2="14.198868"
       x2="13.132075"
       y1="2.0667922"
       x1="2.6037736"
       id="linearGradient1281"
       xlink:href="#linearGradient1279" />
  </defs>
  <g
     style="display:inline"
     id="layer1">
    <path
       id="path2"
       transform="scale(64)"
       d="M 8,0 C 3.58,0 0,3.58 0,8 c 0,3.54 2.29,6.53 5.47,7.59 0.4,0.07 0.55,-0.17 0.55,-0.38 0,-0.19 -0.01,-0.82 -0.01,-1.49 C 4,14.09 3.48,13.23 3.32,12.78 3.23,12.55 2.84,11.84 2.5,11.65 2.22,11.5 1.82,11.13 2.49,11.12 3.12,11.11 3.57,11.7 3.72,11.94 4.44,13.15 5.59,12.81 6.05,12.6 6.12,12.08 6.33,11.73 6.56,11.53 4.78,11.33 2.92,10.64 2.92,7.58 2.92,6.71 3.23,5.99 3.74,5.43 3.66,5.23 3.38,4.41 3.82,3.31 c 0,0 0.67,-0.21 2.2,0.82 0.64,-0.18 1.32,-0.27 2,-0.27 0.68,0 1.36,0.09 2,0.27 1.53,-1.04 2.2,-0.82 2.2,-0.82 0.44,1.1 0.16,1.92 0.08,2.12 0.51,0.56 0.82,1.27 0.82,2.15 0,3.07 -1.87,3.75 -3.65,3.95 0.29,0.25 0.54,0.73 0.54,1.48 0,1.07 -0.01,1.93 -0.01,2.2 0,0.21 0.15,0.46 0.55,0.38 C 13.71,14.53 16,11.53 16,8 16,3.58 12.42,0 8,0 Z"
       style="clip-rule:evenodd;display:inline;fill:url(#linearGradient1281);fill-opacity:1;fill-rule:evenodd;stroke:none" />
  </g>
  <g
     style="display:inline"
     id="layer3">
    <path
       id="path1178"
       d="m 12.075472,403.37971 c 0,-0.44776 1.887219,-8.31599 4.193821,-17.48495 6.115044,-24.30788 16.1384,-54.02058 19.194561,-56.89933 10.780826,-10.15498 100.363486,-65.08746 127.706946,-78.31045 11.32439,-5.47635 14.33863,-5.97803 14.33863,-2.38648 0,3.29331 -8.1386,19.26794 -17.76879,34.87699 -23.72972,38.4622 -32.53713,46.52181 -91.896031,84.09358 -15.786086,9.99196 -34.792087,22.38764 -42.235557,27.54596 -7.443469,5.15834 -13.53358,9.01244 -13.53358,8.56468 z"
       style="display:inline;opacity:1;fill:#000000;fill-opacity:1;stroke:none;stroke-width:3.0350318;stroke-linecap:round;stroke-miterlimit:4;stroke-dasharray:none;stroke-opacity:1;paint-order:stroke fill markers" />
    <path
       id="path1180"
       d="M 10.293885,611.52414 C 9.3097804,608.73461 4.9455755,581.24933 4.1930713,573.10189 L 3.4681266,565.25283 13.30872,554.38491 c 15.673825,-17.31013 22.577588,-27.57168 86.92828,-129.20755 41.19195,-65.05882 65.35632,-101.72998 82.75389,-125.58491 18.14774,-24.88354 52.48081,-66.55577 52.48081,-63.6993 0,0.56096 -1.05993,5.88505 -2.35538,11.83131 -6.81749,31.29289 -5.5692,66.53092 3.28419,92.70939 l 2.37752,7.03008 -5.31778,6.22994 c -11.7408,13.75469 -22.3827,30.93938 -30.53911,49.31494 -4.71737,10.62774 -19.20196,32.34298 -39.55835,59.3057 -29.1695,38.63596 -71.33277,82.29861 -117.732443,121.91913 -27.101412,23.1418 -34.723392,29.0283 -35.336462,27.2905 z"
       style="display:inline;opacity:1;fill:#000000;fill-opacity:1;stroke:none;stroke-width:3.0350318;stroke-linecap:round;stroke-miterlimit:4;stroke-dasharray:none;stroke-opacity:1;paint-order:stroke fill markers" />
    <path
       id="path1182"
       d="m 331.49945,232.35752 c -19.5468,-10.08151 -48.71464,-19.66223 -64.41321,-21.1577 l -7.63074,-0.72692 7.02697,-7.20699 c 9.56225,-9.80723 33.51862,-30.77379 48.79162,-42.70231 18.15059,-14.17599 49.34188,-36.4306 105.6314,-75.366741 60.19312,-41.636299 86.09467,-59.846791 104.57318,-73.5218 l 14.08243,-10.4217057 13.69115,0.980036 c 14.39198,1.0302033 54.00233,6.3998082 55.06751,7.4649879 1.51735,1.5173488 -39.22657,46.1669428 -58.67746,64.3022348 -25.6949,23.956973 -40.69819,35.703268 -102.24607,80.049958 -47.75067,34.40546 -72.04947,52.64443 -91.99305,69.05104 -8.75466,7.20204 -16.09051,13.06849 -16.30189,13.03653 -0.21137,-0.0319 -3.6322,-1.73323 -7.60184,-3.78062 z"
       style="display:inline;opacity:1;fill:#000000;fill-opacity:1;stroke:none;stroke-width:3.0350318;stroke-linecap:round;stroke-miterlimit:4;stroke-dasharray:none;stroke-opacity:1;paint-order:stroke fill markers" />
    <path
       id="path1184"
       d="m 342.55416,44.612024 c -1.41443,-1.414434 -0.90306,-4.719993 1.69869,-10.9805 l 2.517,-6.056572 16.50187,-4.939557 c 19.60134,-5.867334 36.50577,-10.158532 37.2168,-9.447505 0.28089,0.280896 -4.53675,3.763551 -10.70588,7.739235 -25.07167,16.157389 -44.8415,26.071879 -47.22848,23.684899 z"
       style="display:inline;opacity:1;fill:#000000;fill-opacity:1;stroke:none;stroke-width:3.0350318;stroke-linecap:round;stroke-miterlimit:4;stroke-dasharray:none;stroke-opacity:1;paint-order:stroke fill markers" />
    <path
       id="path1186"
       d="m 582.4326,111.10611 c -0.52883,-1.3781 7.80586,-10.32822 29.51849,-31.698115 21.08061,-20.747853 32.99389,-33.504228 39.28605,-42.066315 4.96687,-6.75868 9.2344,-12.89971 9.48341,-13.646734 0.41018,-1.230517 26.76589,7.091603 40.09104,12.659207 l 4.49108,1.87649 -7.59473,8.43166 C 672.74878,74.37194 637.39,97.477549 601.78414,109.34482 c -12.41016,4.13625 -18.23669,4.66656 -19.35154,1.76129 z"
       style="display:inline;opacity:1;fill:#000000;fill-opacity:1;stroke:none;stroke-width:3.0350318;stroke-linecap:round;stroke-miterlimit:4;stroke-dasharray:none;stroke-opacity:1;paint-order:stroke fill markers" />
    <path
       id="path1188"
       d="m 440.16423,250.6653 c 1.55119,-2.50989 35.73168,-27.3508 57.3452,-41.67603 28.89135,-19.14891 48.02569,-29.99012 85.13208,-48.23446 43.05262,-21.16798 63.39623,-29.03561 63.39623,-24.51771 0,2.08022 -0.47251,2.46479 -40.45283,32.92393 -34.56985,26.33715 -60.0014,46.55094 -82.11321,65.26613 l -14.49057,12.26465 -20.5283,0.79517 c -11.29057,0.43735 -26.23396,1.5907 -33.20755,2.56301 -15.35557,2.14098 -16.04126,2.16896 -15.08105,0.61531 z"
       style="display:inline;opacity:1;fill:#000000;fill-opacity:1;stroke:none;stroke-width:3.0350318;stroke-linecap:round;stroke-miterlimit:4;stroke-dasharray:none;stroke-opacity:1;paint-order:stroke fill markers" />
    <path
       id="path1190"
       d="m 691.52465,211.24289 c -2.87392,-2.87391 1.07165,-16.24094 10.8126,-36.63157 16.98618,-35.557 43.13754,-65.03057 76.01495,-85.671712 l 10.4765,-6.577373 3.77433,2.159972 c 5.97558,3.419702 29.73659,20.296613 29.73659,21.121233 0,0.41009 -2.49282,2.06806 -5.53962,3.68437 -8.28389,4.3946 -29.55375,18.43268 -40.73923,26.88783 -18.22251,13.77448 -31.46501,25.44981 -55.15511,48.6278 -26.63344,26.05772 -28.26066,27.5198 -29.38101,26.39945 z"
       style="display:inline;opacity:1;fill:#000000;fill-opacity:1;stroke:none;stroke-width:3.0350318;stroke-linecap:round;stroke-miterlimit:4;stroke-dasharray:none;stroke-opacity:1;paint-order:stroke fill markers" />
    <path
       id="path1192"
       d="m 795.38749,258.44106 c -2.03345,-13.1815 -7.0836,-32.41902 -11.23264,-42.78848 -1.56159,-3.90281 -2.5307,-4.81835 -5.11615,-4.83334 -6.41832,-0.0372 -6.93181,-1.97852 -1.28527,-4.85917 9.44939,-4.82071 70.18785,-38.76874 83.66095,-46.75988 l 13.11249,-7.77727 5.39057,5.25458 c 2.96481,2.89002 10.23657,10.77345 16.15947,17.51874 l 10.76892,12.26417 -11.13852,8.26414 c -16.72566,12.40947 -42.03803,32.25345 -70.34882,55.15093 -13.94717,11.28033 -25.91629,20.93387 -26.59804,21.4523 -0.80562,0.61263 -1.98642,-3.89877 -3.37296,-12.88672 z"
       style="display:inline;opacity:1;fill:#000000;fill-opacity:1;stroke:none;stroke-width:3.0350318;stroke-linecap:round;stroke-miterlimit:4;stroke-dasharray:none;stroke-opacity:1;paint-order:stroke fill markers" />
    <path
       id="path1194"
       d="m 839.9759,472.57358 c -0.3437,-2.82264 -1.21969,-10.29433 -1.94665,-16.60377 -1.50822,-13.09018 -5.80274,-31.01184 -10.40943,-43.44001 l -3.15023,-8.49886 14.33124,-15.33673 c 24.81099,-26.55174 64.87472,-66.90924 78.77498,-79.3526 18.23234,-16.3214 38.02372,-30.85848 46.14009,-33.89063 1.47774,-0.55205 3.55317,2.75006 9.26045,14.73384 9.20996,19.33851 18.67805,42.35948 18.18774,44.22218 -0.34907,1.32611 -33.44355,33.7406 -98.00208,95.98841 -26.3072,25.3656 -50.37453,47.31025 -51.88652,47.31025 -0.37107,0 -0.95589,-2.30943 -1.29959,-5.13208 z"
       style="display:inline;opacity:1;fill:#000000;fill-opacity:1;stroke:none;stroke-width:3.0350318;stroke-linecap:round;stroke-miterlimit:4;stroke-dasharray:none;stroke-opacity:1;paint-order:stroke fill markers" />
    <path
       id="path1196"
       d="m 640.8237,838.9447 c -0.3779,-17.03618 -1.19206,-33.30513 -1.80925,-36.1532 l -1.12217,-5.1783 19.10538,-11.39705 c 10.50796,-6.26836 42.63503,-24.2399 71.39348,-39.93674 61.60495,-33.62498 70.71205,-38.86852 89.11829,-51.31122 24.24389,-16.38895 41.69958,-31.01556 97.73254,-81.89279 51.95339,-47.17303 90.80353,-80.33157 103.62593,-88.44454 l 3.9246,-2.48312 -0.024,11.28839 c -0.079,37.51279 -10.8075,96.13959 -26.04108,142.30727 -6.70592,20.32332 -6.77413,20.40952 -28.36931,35.84992 -45.58731,32.5946 -70.56149,44.50031 -150.245,71.62497 -92.73024,31.56584 -126.95427,47.73757 -166.188,78.52809 l -10.41441,8.17321 z"
       style="display:inline;opacity:1;fill:#000000;fill-opacity:1;stroke:none;stroke-width:3.0350318;stroke-linecap:round;stroke-miterlimit:4;stroke-dasharray:none;stroke-opacity:1;paint-order:stroke fill markers" />
    <path
       id="path1198"
       d="m 25.399071,670.14314 c -5.275291,-16.50106 -8.863864,-29.51559 -8.259199,-29.9533 20.499517,-14.83938 82.534742,-61.75513 95.235978,-72.02468 20.60837,-16.66284 43.61573,-37.65285 61.81283,-56.39291 l 12.98113,-13.36845 10e-4,8.6698 c 0.002,11.85799 3.20398,38.53784 6.52194,54.34273 l 2.74363,13.06916 -9.76559,7.55675 c -12.52519,9.69236 -28.47079,20.86188 -55.65213,38.9832 -25.39824,16.93255 -97.152567,63.22549 -99.243617,64.02789 -0.9242,0.35466 -3.189876,-4.94344 -6.376182,-14.91019 z"
       style="display:inline;opacity:1;fill:#000000;fill-opacity:1;stroke:none;stroke-width:3.0350318;stroke-linecap:round;stroke-miterlimit:4;stroke-dasharray:none;stroke-opacity:1;paint-order:stroke fill markers" />
    <path
       id="path1200"
       d="m 267.25938,797.89585 c -8.80596,-6.96894 -17.39626,-16.91203 -26.86548,-31.09618 -4.69967,-7.03973 -8.50957,-13.15445 -8.46646,-13.58827 0.12258,-1.23343 16.27111,-14.90366 39.55862,-33.48761 l 21.3036,-17.00073 13.30328,6.34316 c 14.60057,6.96173 29.63066,12.51016 45.0669,16.63667 l 10.02776,2.68068 -11.83908,11.44966 c -6.5115,6.29731 -21.89192,19.25907 -34.17871,28.80391 -12.28679,9.54485 -26.78233,21.07006 -32.21232,25.61157 l -9.87269,8.25731 z"
       style="display:inline;opacity:1;fill:#000000;fill-opacity:1;stroke:none;stroke-width:3.0350318;stroke-linecap:round;stroke-miterlimit:4;stroke-dasharray:none;stroke-opacity:1;paint-order:stroke fill markers" />
    <path
       id="path1202"
       d="m 376.64062,801.25786 c 6.91083,-6.61758 12.71225,-11.88487 12.89204,-11.70508 0.6355,0.63551 -2.88152,15.64474 -3.89776,16.63408 -1.50158,1.46183 -17.27515,7.22691 -19.58999,7.15994 -1.15265,-0.0334 3.24172,-5.04701 10.59571,-12.08894 z"
       style="display:inline;opacity:1;fill:#000000;fill-opacity:1;stroke:none;stroke-width:3.0350318;stroke-linecap:round;stroke-miterlimit:4;stroke-dasharray:none;stroke-opacity:1;paint-order:stroke fill markers" />
    <path
       id="path1204"
       d="m 181.73585,902.5448 c -11.99789,-10.03714 -34.4151,-31.27595 -34.4151,-32.60601 0,-2.66376 31.31597,-52.8803 43.7607,-70.17221 l 6.7728,-9.41078 5.44834,10.01455 c 2.99658,5.50801 7.33803,14.50548 9.64766,19.99438 4.98505,11.84711 9.27748,19.39774 14.24114,25.05105 2.26599,2.58081 3.2836,4.72505 2.69934,5.68786 -1.16192,1.91479 -39.20761,55.57759 -40.19453,56.69371 -0.39329,0.44477 -3.97545,-1.91888 -7.96035,-5.25255 z"
       style="display:inline;opacity:1;fill:#000000;fill-opacity:1;stroke:none;stroke-width:3.0350318;stroke-linecap:round;stroke-miterlimit:4;stroke-dasharray:none;stroke-opacity:1;paint-order:stroke fill markers" />
    <path
       id="path1206"
       d="m 275.25324,965.36477 c -15.18281,-7.99026 -39.3521,-22.28922 -40.31871,-23.85323 -0.33688,-0.54507 12.68548,-14.13404 28.93856,-30.1977 l 29.55107,-29.20666 10.57094,0.96905 c 21.53215,1.97388 61.17064,-0.10864 77.28792,-4.06053 2.5472,-0.62457 2.71698,-0.28468 2.71698,5.43926 v 6.10546 l -25.66038,20.87771 c -27.1096,22.05684 -40.36774,33.59157 -58.29182,50.71455 l -10.97528,10.48476 z"
       style="display:inline;opacity:1;fill:#000000;fill-opacity:1;stroke:none;stroke-width:3.0350318;stroke-linecap:round;stroke-miterlimit:4;stroke-dasharray:none;stroke-opacity:1;paint-order:stroke fill markers" />
  </g>
</svg>
