<?xml version="1.0" encoding="UTF-8" standalone="no"?>
<svg
   xmlns:dc="http://purl.org/dc/elements/1.1/"
   xmlns:cc="http://creativecommons.org/ns#"
   xmlns:rdf="http://www.w3.org/1999/02/22-rdf-syntax-ns#"
   xmlns:svg="http://www.w3.org/2000/svg"
   xmlns="http://www.w3.org/2000/svg"
   xmlns:xlink="http://www.w3.org/1999/xlink"
   xmlns:sodipodi="http://sodipodi.sourceforge.net/DTD/sodipodi-0.dtd"
   xmlns:inkscape="http://www.inkscape.org/namespaces/inkscape"
   id="svg8"
   version="1.1"
   viewBox="0 0 135.46666 135.46667"
   height="512"
   width="512"
   sodipodi:docname="Tigre_Twitch.svg"
   inkscape:version="0.92.4 (5da689c313, 2019-01-14)">
  <sodipodi:namedview
     pagecolor="#ffffff"
     bordercolor="#666666"
     borderopacity="1"
     objecttolerance="10"
     gridtolerance="10"
     guidetolerance="10"
     inkscape:pageopacity="0"
     inkscape:pageshadow="2"
     inkscape:window-width="1920"
     inkscape:window-height="1017"
     id="namedview36"
     showgrid="false"
     inkscape:zoom="1.65625"
     inkscape:cx="256"
     inkscape:cy="256"
     inkscape:window-x="-8"
     inkscape:window-y="-8"
     inkscape:window-maximized="1"
     inkscape:current-layer="svg8" />
  <defs
     id="defs2">
    <linearGradient
       id="linearGradient1054">
      <stop
         id="stop1050"
         offset="0"
         style="stop-color:#ee8706;stop-opacity:0.93333334" />
      <stop
         style="stop-color:#ffbb00;stop-opacity:1"
         offset="0.48031342"
         id="stop1073" />
      <stop
         id="stop1052"
         offset="1"
         style="stop-color:#ee8706;stop-opacity:0.93333334" />
    </linearGradient>
    <linearGradient
       gradientUnits="userSpaceOnUse"
       y2="115.1114"
       x2="106.41958"
       y1="21.980423"
       x1="28.133179"
       id="linearGradient1078"
       xlink:href="#linearGradient1054" />
    <linearGradient
       inkscape:collect="always"
       xlink:href="#linearGradient1054"
       id="linearGradient843"
       gradientUnits="userSpaceOnUse"
       x1="28.133179"
       y1="21.980423"
       x2="106.41958"
       y2="115.1114"
       gradientTransform="scale(0.26458333)" />
    <linearGradient
       inkscape:collect="always"
       xlink:href="#linearGradient1054"
       id="linearGradient845"
       gradientUnits="userSpaceOnUse"
       x1="28.133179"
       y1="21.980423"
       x2="106.41958"
       y2="115.1114"
       gradientTransform="scale(0.26458333)" />
    <linearGradient
       inkscape:collect="always"
       xlink:href="#linearGradient1054"
       id="linearGradient849"
       gradientUnits="userSpaceOnUse"
       x1="28.133179"
       y1="21.980423"
       x2="106.41958"
       y2="115.1114"
       gradientTransform="scale(0.26458333)" />
    <linearGradient
       inkscape:collect="always"
       xlink:href="#linearGradient1054"
       id="linearGradient855"
       gradientUnits="userSpaceOnUse"
       x1="28.133179"
       y1="21.980423"
       x2="106.41958"
       y2="115.1114"
       gradientTransform="scale(0.26458333)" />
    <linearGradient
       inkscape:collect="always"
       xlink:href="#linearGradient1054"
       id="linearGradient857"
       gradientUnits="userSpaceOnUse"
       x1="28.133179"
       y1="21.980423"
       x2="106.41958"
       y2="115.1114"
       gradientTransform="scale(0.26458333)" />
    <linearGradient
       inkscape:collect="always"
       xlink:href="#linearGradient1054"
       id="linearGradient859"
       gradientUnits="userSpaceOnUse"
       x1="28.133179"
       y1="21.980423"
       x2="106.41958"
       y2="115.1114"
       gradientTransform="scale(0.26458333)" />
  </defs>
  <metadata
     id="metadata5">
    <rdf:RDF>
      <cc:Work
         rdf:about="">
        <dc:format>image/svg+xml</dc:format>
        <dc:type
           rdf:resource="http://purl.org/dc/dcmitype/StillImage" />
        <dc:title />
      </cc:Work>
    </rdf:RDF>
  </metadata>
  <path
     inkscape:connector-curvature="0"
     style="opacity:1;fill:#000000;fill-opacity:1;stroke:none;stroke-width:0.60798466;stroke-linecap:round;stroke-miterlimit:4;stroke-dasharray:none;stroke-opacity:1;paint-order:stroke fill markers"
     d="M 7.9243411,61.63507 C 8.5539486,50.52265 13.612489,37.91827 21.232946,28.47399 27.584521,20.602272 36.760213,13.94887 46.515837,10.141065 50.846672,8.4506574 57.43772,6.8850713 61.920371,6.4819923 L 63.822693,6.3109358 63.096996,6.9095177 C 61.798488,7.9805788 58.604207,10.344032 53.179151,14.247755 42.217977,22.135116 38.021934,25.493155 33.865103,29.704538 29.071715,34.56083 26.603629,37.749363 18.585818,49.443933 14.150441,55.913257 10.071517,61.511518 8.5396466,63.232156 l -0.7537625,0.846646 z"
     id="path988" />
  <path
     inkscape:connector-curvature="0"
     style="opacity:1;fill:#000000;fill-opacity:1;stroke:none;stroke-width:0.60798466;stroke-linecap:round;stroke-miterlimit:4;stroke-dasharray:none;stroke-opacity:1;paint-order:stroke fill markers"
     d="M 9.4376831,81.196155 C 9.2331081,80.856369 8.534179,77.113873 8.201099,74.574724 L 7.8714147,72.061458 10.931492,69.026894 c 1.683043,-1.669011 5.558577,-5.696622 8.612298,-8.950251 3.053721,-3.253626 7.217401,-7.647652 9.252624,-9.764501 l 3.700404,-3.848814 v 6.791528 6.791529 l -3.563483,3.951399 c -6.998556,7.760411 -11.569559,11.978933 -17.193784,15.86793 -1.20495,0.833189 -2.2407904,1.431888 -2.3018679,1.330441 z"
     id="path990" />
  <path
     inkscape:connector-curvature="0"
     style="opacity:1;fill:#000000;fill-opacity:1;stroke:none;stroke-width:0.60798466;stroke-linecap:round;stroke-miterlimit:4;stroke-dasharray:none;stroke-opacity:1;paint-order:stroke fill markers"
     d="m 52.591252,28.158807 c 6.933854,-5.382779 12.272058,-8.763172 19.818845,-12.550188 7.264085,-3.645156 10.643539,-4.967923 10.643539,-4.166035 0,0.120252 -2.04102,1.774163 -4.535599,3.675358 -5.81121,4.428901 -11.830171,9.238523 -15.058191,12.032676 l -2.539936,2.19855 -4.942078,0.0086 -4.942076,0.0086 z"
     id="path992" />
  <path
     inkscape:connector-curvature="0"
     style="opacity:1;fill:#000000;fill-opacity:1;stroke:none;stroke-width:0.60798466;stroke-linecap:round;stroke-miterlimit:4;stroke-dasharray:none;stroke-opacity:1;paint-order:stroke fill markers"
     d="m 73.385737,7.6559398 c 0.0044,-0.099783 0.207367,-0.4201662 0.450977,-0.7119622 0.409522,-0.490524 0.5568,-0.5144429 1.952697,-0.3171341 0.830373,0.1173726 1.563433,0.2670686 1.629023,0.3326577 0.06559,0.065589 -0.455514,0.2899402 -1.158004,0.4985578 -1.343509,0.3989787 -2.888329,0.5053174 -2.874693,0.1978808 z"
     id="path994" />
  <path
     inkscape:connector-curvature="0"
     style="opacity:1;fill:#000000;fill-opacity:1;stroke:none;stroke-width:0.60798466;stroke-linecap:round;stroke-miterlimit:4;stroke-dasharray:none;stroke-opacity:1;paint-order:stroke fill markers"
     d="m 89.687245,22.269081 c -0.325665,-0.84867 1.348542,-4.934147 3.458557,-8.439727 l 1.125387,-1.869717 2.071507,1.119157 c 1.139328,0.615536 2.10661,1.147308 2.149518,1.181716 0.102393,0.08211 -7.883914,7.911395 -8.328393,8.16464 -0.217308,0.123814 -0.391001,0.06693 -0.476576,-0.156069 z"
     id="path996" />
  <path
     inkscape:connector-curvature="0"
     style="opacity:1;fill:#000000;fill-opacity:1;stroke:none;stroke-width:0.60798466;stroke-linecap:round;stroke-miterlimit:4;stroke-dasharray:none;stroke-opacity:1;paint-order:stroke fill markers"
     d="m 103.85692,31.213914 v -1.840151 l -6.954585,-0.06419 -6.954586,-0.06418 3.144681,-1.957626 c 1.729576,-1.076692 5.410975,-3.233481 8.18089,-4.792862 l 5.03621,-2.83524 1.04098,0.853005 c 0.57254,0.469153 2.04765,1.828536 3.27802,3.020851 l 2.23704,2.167846 -0.81537,0.698654 c -0.70937,0.607825 -7.06184,5.775576 -7.89091,6.419273 -0.23597,0.183214 -0.30237,-0.169322 -0.30237,-1.605383 z"
     id="path998" />
  <path
     inkscape:connector-curvature="0"
     style="opacity:1;fill:#000000;fill-opacity:1;stroke:none;stroke-width:0.60798466;stroke-linecap:round;stroke-miterlimit:4;stroke-dasharray:none;stroke-opacity:1;paint-order:stroke fill markers"
     d="m 68.297818,57.760883 v -7.997772 l 2.599799,-3.122848 c 1.42989,-1.717567 4.239776,-4.782876 6.244188,-6.811801 l 3.644389,-3.688956 5.850744,-0.05471 c 3.21791,-0.03009 6.857648,-0.05731 8.08831,-0.06048 l 2.23756,-0.0058 0.07462,1.313238 c 0.07018,1.235194 0.02738,1.350198 -0.720312,1.935189 -0.437211,0.342075 -3.190436,2.608546 -6.118273,5.036603 l -5.323348,4.41465 h -2.725168 -2.725169 v 2.441167 2.441168 l -3.112624,3.303926 c -1.711947,1.817158 -4.009843,4.338042 -5.10644,5.601962 -1.096597,1.263922 -2.199566,2.512724 -2.451045,2.775116 -0.448773,0.468255 -0.457229,0.329174 -0.457229,-7.520693 z"
     id="path1000" />
  <path
     inkscape:connector-curvature="0"
     style="opacity:1;fill:#000000;fill-opacity:1;stroke:none;stroke-width:0.60798466;stroke-linecap:round;stroke-miterlimit:4;stroke-dasharray:none;stroke-opacity:1;paint-order:stroke fill markers"
     d="m 44.115042,41.536027 c -0.0039,-2.952382 0.08812,-5.426808 0.204478,-5.498724 0.116364,-0.07192 2.278385,-0.06162 4.804497,0.02286 l 4.592926,0.153625 -4.041928,4.498456 c -2.223061,2.47415 -4.381894,4.879446 -4.797407,5.345099 l -0.755472,0.846646 z"
     id="path1002" />
  <path
     inkscape:connector-curvature="0"
     style="opacity:1;fill:#000000;fill-opacity:1;stroke:none;stroke-width:0.60798466;stroke-linecap:round;stroke-miterlimit:4;stroke-dasharray:none;stroke-opacity:1;paint-order:stroke fill markers"
     d="m 44.107951,82.684984 c 0,-0.07753 1.287923,-1.900843 2.862051,-4.051803 1.574128,-2.150962 4.54764,-6.251207 6.607805,-9.111659 2.060165,-2.860453 4.663786,-6.450309 5.785829,-7.977463 l 2.040069,-2.776641 0.120952,4.71183 0.120949,4.711832 2.253046,0.120949 2.253046,0.120949 -4.309184,5.32742 c -2.370053,2.93008 -4.962313,6.16349 -5.760577,7.18535 l -1.451393,1.857931 -5.261295,0.01114 c -2.893713,0.0061 -5.261298,-0.0523 -5.261298,-0.129829 z"
     id="path1004" />
  <path
     inkscape:connector-curvature="0"
     style="opacity:1;fill:#000000;fill-opacity:1;stroke:none;stroke-width:0.60798466;stroke-linecap:round;stroke-miterlimit:4;stroke-dasharray:none;stroke-opacity:1;paint-order:stroke fill markers"
     d="m 81.904617,70.81985 c -0.29935,-0.06737 -0.544272,-0.260884 -0.544272,-0.430043 0,-0.326469 2.611165,-1.69559 3.779938,-1.981946 0.382352,-0.09368 0.749615,-0.237871 0.816136,-0.320426 0.06652,-0.08256 1.263735,-0.637281 2.660473,-1.232723 1.396738,-0.595442 3.873177,-1.748914 5.503196,-2.563273 l 2.963672,-1.48065 v 3.320375 3.320375 l -1.874716,0.397563 c -1.031092,0.218657 -2.636695,0.508146 -3.568004,0.643308 -1.919023,0.278506 -8.909243,0.513591 -9.736423,0.32744 z"
     id="path1006" />
  <path
     inkscape:connector-curvature="0"
     style="opacity:1;fill:#000000;fill-opacity:1;stroke:none;stroke-width:0.60798466;stroke-linecap:round;stroke-miterlimit:4;stroke-dasharray:none;stroke-opacity:1;paint-order:stroke fill markers"
     d="m 77.731865,82.307789 c 2.97933,-1.817029 11.048079,-4.803611 12.977757,-4.803611 0.290422,0 -0.45988,0.902046 -2.213266,2.660885 l -2.652633,2.660886 -4.479251,-7.94e-4 -4.479252,-7.94e-4 z"
     id="path1008" />
  <path
     inkscape:connector-curvature="0"
     style="opacity:1;fill:#000000;fill-opacity:1;stroke:none;stroke-width:0.60798466;stroke-linecap:round;stroke-miterlimit:4;stroke-dasharray:none;stroke-opacity:1;paint-order:stroke fill markers"
     d="m 41.985893,121.17569 c -1.748986,-0.8513 -3.963774,-2.01346 -4.921748,-2.58259 l -1.74177,-1.03476 2.443665,-2.30801 c 1.344017,-1.2694 4.701529,-4.47929 7.461139,-7.13308 2.759606,-2.65379 5.060891,-4.69481 5.113961,-4.5356 0.07065,0.21194 1.40257,0.28948 4.972622,0.28948 h 4.876128 l 4.849066,-4.844733 4.849061,-4.844735 3.61955,0.06724 3.619553,0.06723 -6.289365,6.257578 c -3.459152,3.44167 -7.595619,7.36997 -9.192149,8.72955 -2.198272,1.87201 -14.532835,11.92578 -16.222525,13.22281 -0.149389,0.11467 -1.590249,-0.45141 -3.437188,-1.35038 z"
     id="path1010" />
  <path
     inkscape:connector-curvature="0"
     style="opacity:1;fill:#000000;fill-opacity:1;stroke:none;stroke-width:0.60798466;stroke-linecap:round;stroke-miterlimit:4;stroke-dasharray:none;stroke-opacity:1;paint-order:stroke fill markers"
     d="m 24.973218,109.01148 c -1.005197,-1.0311 -2.447169,-2.59686 -3.204383,-3.47947 l -1.376751,-1.60475 2.847209,-2.42384 c 1.565965,-1.33311 4.251455,-3.522829 5.967751,-4.866036 l 3.120544,-2.4422 h 6.515256 6.515256 l -0.803294,1.028071 c -1.985219,2.540725 -7.792863,8.008095 -11.937039,11.237645 -2.394797,1.86626 -4.561544,3.62542 -4.814991,3.90925 -0.253447,0.28382 -0.582565,0.51604 -0.731372,0.51604 -0.148804,0 -1.092989,-0.84362 -2.098186,-1.87471 z"
     id="path1012" />
  <path
     inkscape:connector-curvature="0"
     style="opacity:1;fill:#000000;fill-opacity:1;stroke:none;stroke-width:0.60798466;stroke-linecap:round;stroke-miterlimit:4;stroke-dasharray:none;stroke-opacity:1;paint-order:stroke fill markers"
     d="m 62.745955,126.86392 c -0.479904,-0.3036 8.000937,-8.73689 11.962178,-11.89512 5.527323,-4.40683 8.476837,-6.24573 20.803285,-12.96995 14.067552,-7.674022 14.965012,-8.30843 26.574032,-18.785131 2.90782,-2.6242 5.33258,-4.725643 5.38835,-4.669874 0.18452,0.184526 -1.54531,6.53746 -2.45036,8.999127 -1.33264,3.624654 -3.96607,8.831778 -6.11684,12.094932 -2.02561,3.073256 -3.99537,5.694116 -4.47839,5.958696 -0.15983,0.0876 -3.33852,1.21584 -7.06376,2.50731 -10.097845,3.50075 -14.001282,5.1422 -18.36882,7.72436 -3.378531,1.99744 -8.200697,5.80507 -11.917257,9.40999 -1.328364,1.28846 -1.646901,1.47595 -2.781834,1.63745 -1.839553,0.26175 -11.133177,0.25227 -11.550584,-0.0118 z"
     id="path1014" />
  <path
     inkscape:connector-curvature="0"
     style="opacity:1;fill:#000000;fill-opacity:1;stroke:none;stroke-width:0.60798466;stroke-linecap:round;stroke-miterlimit:4;stroke-dasharray:none;stroke-opacity:1;paint-order:stroke fill markers"
     d="m 103.85692,62.125806 v -4.734832 l 4.27757,-4.638741 c 4.43378,-4.808149 13.37141,-13.951842 13.63741,-13.951842 0.27059,0 2.58493,5.131718 3.47426,7.703693 0.47599,1.376582 0.86544,2.530012 0.86544,2.563183 0,0.03317 -2.69415,2.629842 -5.987,5.77038 -6.12181,5.838661 -8.09309,7.550745 -10.37335,9.009409 -1.30294,0.83348 -5.45654,3.01358 -5.74157,3.01358 -0.084,0 -0.15276,-2.130674 -0.15276,-4.73483 z"
     id="path1016" />
  <path
     style="opacity:1;fill:url(#linearGradient843);fill-opacity:1;stroke:none;stroke-width:0.60798466;stroke-linecap:round;stroke-miterlimit:4;stroke-dasharray:none;stroke-opacity:1;paint-order:stroke fill markers"
     d="M 7.7410087,69.598264 C 7.4335853,64.955586 7.4737435,64.614932 8.4673981,63.436467 10.175499,61.410677 14.087077,56.031627 19.082359,48.839186 27.584318,36.597669 30.05184,33.479327 35.065612,28.640286 c 3.894479,-3.758757 7.560921,-6.64886 18.718287,-14.75484 2.993496,-2.174816 6.531263,-4.779109 7.861707,-5.7873173 l 2.418985,-1.8331061 2.660885,-0.084363 c 1.463487,-0.0464 3.766836,-0.00938 5.118555,0.082267 2.419025,0.1640104 2.450405,0.1738948 1.995665,0.6286352 -0.254103,0.2541026 -0.462005,0.5859777 -0.462005,0.7375003 0,0.3946496 2.630445,0.1196576 3.586991,-0.374991 0.714147,-0.3693001 0.920509,-0.3624162 3.244382,0.1082286 4.429614,0.8971121 10.077703,2.7224773 12.829291,4.1462063 l 1.086318,0.562084 -1.24999,2.177088 c -2.349539,4.092152 -3.679444,7.568806 -3.112224,8.136025 0.208261,0.20826 1.241853,-0.642831 4.158498,-3.424227 2.134746,-2.035754 4.028149,-3.922452 4.207563,-4.192662 0.323569,-0.487325 0.335806,-0.48574 1.515435,0.196335 1.322095,0.76445 4.334915,2.843188 5.712405,3.941361 l 0.8947,0.713273 -2.10419,1.173289 c -4.159507,2.319328 -10.847102,6.24686 -12.599823,7.3997 l -1.787279,1.175573 H 75.378306 60.996848 l 2.650514,-2.262296 c 3.322605,-2.835947 7.152383,-5.911916 14.02403,-11.263703 2.960235,-2.305495 5.382244,-4.287342 5.382244,-4.404105 0,-0.775218 -2.773376,0.25733 -9.136245,3.40149 -8.125902,4.015347 -13.20492,7.113563 -19.692294,12.012352 l -3.332234,2.516262 h -6.737281 -6.737279 l -2.463548,6.591739 c -2.355686,6.303134 -2.463427,6.674588 -2.460744,8.484057 l 0.0028,1.892321 -10.738794,11.291155 C 15.851685,63.835753 10.31701,69.604434 9.4587424,70.444909 l -1.560486,1.528133 z"
     id="path1018"
     inkscape:connector-curvature="0" />
  <path
     style="opacity:1;fill:url(#linearGradient845);fill-opacity:1;stroke:none;stroke-width:0.60798466;stroke-linecap:round;stroke-miterlimit:4;stroke-dasharray:none;stroke-opacity:1;paint-order:stroke fill markers"
     d="M 18.539011,101.27072 C 15.180221,96.453951 12.529208,91.127044 10.617476,85.353296 9.3362498,81.483784 9.3237869,81.314747 10.28562,80.852364 c 1.386832,-0.666695 6.487586,-4.627301 9.516845,-7.389591 2.467302,-2.249855 4.60017,-4.472164 11.781183,-12.275224 l 0.901073,-0.979125 -0.0042,16.932904 -0.0042,16.932907 -2.08516,1.572342 c -1.146839,0.864788 -3.814961,3.01466 -5.929161,4.777493 -2.114201,1.76284 -3.941733,3.20516 -4.061184,3.20516 -0.11945,0 -0.957261,-1.06133 -1.861802,-2.35851 z"
     id="path1020"
     inkscape:connector-curvature="0" />
  <path
     style="opacity:1;fill:#333333;fill-opacity:1;stroke:none;stroke-width:0.60798466;stroke-linecap:round;stroke-miterlimit:4;stroke-dasharray:none;stroke-opacity:1;paint-order:stroke fill markers"
     d="M 44.107951,64.717331 V 46.995757 l 4.883164,-5.428126 4.883163,-5.428125 h 13.407326 13.407329 l -3.855318,3.964622 c -2.120421,2.18054 -4.87081,5.171845 -6.111975,6.647342 -1.86663,2.219055 -2.30287,2.619528 -2.524022,2.317083 -0.219533,-0.300233 -0.829463,-0.353449 -3.409685,-0.297503 l -3.142327,0.06814 -0.06564,4.94784 c -0.0361,2.721311 -0.152427,5.007253 -0.258496,5.07987 -0.175508,0.120158 -7.000515,9.48213 -14.027702,19.242027 -1.532684,2.12871 -2.8765,3.97379 -2.986257,4.100184 -0.109757,0.126392 -0.19956,-7.744907 -0.19956,-17.491776 z"
     id="path1022"
     inkscape:connector-curvature="0" />
  <path
     style="opacity:1;fill:url(#linearGradient849);fill-opacity:1;stroke:none;stroke-width:0.60798466;stroke-linecap:round;stroke-miterlimit:4;stroke-dasharray:none;stroke-opacity:1;paint-order:stroke fill markers"
     d="m 103.86072,45.205208 0.004,-12.089435 4.32765,-3.499955 c 2.38021,-1.924974 4.43651,-3.536241 4.56956,-3.58059 0.58763,-0.195877 6.04472,7.112409 8.14145,10.903256 l 0.9102,1.645621 -5.41234,5.490387 c -2.97679,3.019716 -6.7615,6.959926 -8.41049,8.756023 -1.64898,1.796097 -3.25363,3.535294 -3.56589,3.86488 l -0.56774,0.599249 z"
     id="path1024"
     inkscape:connector-curvature="0" />
  <path
     style="opacity:1;fill:#333333;fill-opacity:1;stroke:none;stroke-width:0.60798466;stroke-linecap:round;stroke-miterlimit:4;stroke-dasharray:none;stroke-opacity:1;paint-order:stroke fill markers"
     d="m 85.956419,58.389969 c 0,-8.931404 -0.03052,-9.642136 -0.417224,-9.716608 -0.276376,-0.05322 1.458915,-1.62328 5.140349,-4.650873 3.056662,-2.513787 5.748065,-4.733999 5.980893,-4.933801 0.402357,-0.345287 0.423323,0.231457 0.423323,11.64577 v 12.009048 l -2.144025,1.076791 c -1.179213,0.592235 -3.27466,1.584293 -4.65655,2.204572 -1.381887,0.620276 -2.920727,1.324332 -3.419644,1.564566 l -0.907122,0.436792 z"
     id="path1026"
     inkscape:connector-curvature="0" />
  <path
     style="opacity:1;fill:#333333;fill-opacity:1;stroke:none;stroke-width:0.60798466;stroke-linecap:round;stroke-miterlimit:4;stroke-dasharray:none;stroke-opacity:1;paint-order:stroke fill markers"
     d="m 58.621871,87.610962 v -4.76545 l -1.935311,-0.07026 -1.93531,-0.07026 5.745215,-7.184294 5.745215,-7.184298 1.028068,-0.0122 1.02807,-0.0122 v -1.451393 c 0,-0.798267 0.09251,-1.451393 0.205576,-1.451393 0.113067,0 1.90726,-1.877738 3.987094,-4.172752 2.079836,-2.295012 4.488053,-4.934731 5.351595,-5.866043 l 1.570079,-1.693288 0.0065,7.317433 0.0065,7.317436 2.721362,0.0062 2.721358,0.0062 -1.481555,0.718683 c -1.765369,0.856355 -2.287008,1.36457 -1.768523,1.723001 0.858697,0.593621 12.147595,-0.268243 15.042639,-1.148448 0.357828,-0.108794 0.423323,0.03343 0.423323,0.919292 0,1.019381 -0.08268,1.130477 -3.027619,4.068104 -2.457109,2.45101 -3.139686,3.005597 -3.62235,2.943121 -1.249185,-0.161697 -7.877939,2.214079 -11.747388,4.210312 l -2.069198,1.067493 h -4.217953 -4.217956 l -4.779711,4.775229 -4.779714,4.775232 z"
     id="path1028"
     inkscape:connector-curvature="0" />
  <path
     style="opacity:1;fill:url(#linearGradient855);fill-opacity:1;stroke:none;stroke-width:0.60798466;stroke-linecap:round;stroke-miterlimit:4;stroke-dasharray:none;stroke-opacity:1;paint-order:stroke fill markers"
     d="m 58.742823,126.46837 c -4.565409,-0.70516 -14.349968,-3.59657 -13.373322,-3.9519 0.447635,-0.16286 12.607025,-10.01652 16.518003,-13.38577 1.463487,-1.26077 5.545526,-5.13293 9.0712,-8.60481 l 6.410314,-6.312497 3.50865,-0.0091 3.50865,-0.0091 9.735302,-9.737527 9.7353,-9.737529 0.0174,-3.869272 0.0174,-3.869272 2.22017,-1.084963 c 4.52693,-2.21224 6.51564,-3.799679 15.20494,-12.136954 2.61812,-2.512054 4.81039,-4.483539 4.87172,-4.381076 0.33221,0.555043 1.43545,5.64896 1.84194,8.5047 0.89404,6.280939 0.8554,12.993524 -0.10651,18.503479 -0.32387,1.855171 -0.38549,1.97588 -1.48922,2.917243 -0.63326,0.540099 -3.27818,2.876997 -5.87761,5.19311 -10.21513,9.101767 -11.48824,9.986591 -25.183844,17.502978 -14.05042,7.71111 -17.952815,10.29518 -24.331908,16.11195 -3.162377,2.88362 -8.307234,8.15531 -8.307234,8.51203 0,0.3045 -1.353783,0.25168 -3.991327,-0.15571 z"
     id="path1030"
     inkscape:connector-curvature="0" />
  <path
     style="opacity:1;fill:url(#linearGradient857);fill-opacity:1;stroke:none;stroke-width:0.60798466;stroke-linecap:round;stroke-miterlimit:4;stroke-dasharray:none;stroke-opacity:1;paint-order:stroke fill markers"
     d="m 77.829115,124.64265 c 6.531756,-6.14043 12.302196,-9.90115 19.759271,-12.87755 3.623624,-1.44633 16.484294,-5.9834 16.608454,-5.85924 0.18598,0.18599 -4.69156,5.0774 -6.95334,6.97311 -6.07502,5.09178 -12.630192,8.77124 -19.956637,11.20181 -3.351739,1.11195 -7.778617,2.1702 -10.159743,2.42869 l -1.451393,0.15756 z"
     id="path1032"
     inkscape:connector-curvature="0" />
  <path
     style="opacity:1;fill:url(#linearGradient859);fill-opacity:1;stroke:none;stroke-width:0.60798466;stroke-linecap:round;stroke-miterlimit:4;stroke-dasharray:none;stroke-opacity:1;paint-order:stroke fill markers"
     d="m 32.859665,115.80748 c -1.197399,-0.88331 -3.013282,-2.30828 -4.035298,-3.16658 l -1.858209,-1.56056 3.793398,-3.04148 c 6.154552,-4.93461 11.450788,-9.804748 13.623036,-12.527011 l 1.050641,-1.316665 h 2.482043 2.482041 l -0.01349,4.656551 -0.01349,4.656545 -1.256466,1.00173 c -0.691058,0.55095 -4.061574,3.68052 -7.490037,6.95459 -3.428463,3.27407 -6.313104,5.95197 -6.410314,5.95089 -0.09721,-0.001 -1.156436,-0.72469 -2.353834,-1.60801 z"
     id="path1034"
     inkscape:connector-curvature="0" />
  <path
     style="opacity:1;fill:#ffffff;fill-opacity:1;stroke:none;stroke-width:0.68459368;stroke-linecap:butt;stroke-linejoin:round;stroke-miterlimit:4;stroke-dasharray:none;stroke-opacity:1;paint-order:normal"
     d="m 190.9434,391.81145 c -0.57977,-0.23394 -0.75472,-4.42167 -0.75472,-18.06554 v -17.761 h -33.80587 -33.80587 l -0.1564,-64.15095 c -0.086,-35.28302 0.0474,-64.40905 0.29644,-64.72453 0.59193,-0.74977 0.59193,-51.0492 0,-51.04857 -0.24906,2.7e-4 -0.2809,-3.32804 -0.0708,-7.39623 0.29035,-5.62095 0.77739,-8.62878 2.02872,-12.52878 2.06016,-6.42087 16.03415,-44.21478 16.5768,-44.83344 0.33954,-0.3871 46.01584,-0.4791 225.08788,-0.45334 l 26.11321,0.004 v 6.30399 c 0,3.746 0.25689,6.46276 0.63309,6.69526 0.43456,0.26857 0.41644,0.65232 -0.0578,1.2237 -0.51316,0.61833 -0.63717,20.94683 -0.48215,79.0387 l 0.20871,78.20627 -36.80693,36.81068 -36.80694,36.81067 -13.60816,0.24622 c -7.48449,0.13542 -13.87986,0.27978 -14.21193,0.32081 -0.33208,0.0411 -6.58114,-0.0834 -13.8868,-0.27655 l -13.28301,-0.35115 -18.10944,18.16495 -18.10941,18.16494 -18.11699,-0.0477 c -9.96434,-0.0262 -18.4566,-0.1847 -18.87169,-0.3522 z m 100.1811,-78.71037 33.59048,10e-4 9.11421,-9.40314 c 5.01281,-5.17167 9.11421,-9.76894 9.11421,-10.21609 0,-0.44715 0.57757,-0.99632 1.2835,-1.22038 0.70593,-0.22405 5.82819,-4.92915 11.38279,-10.45578 7.08996,-7.05425 10.30846,-10.68921 10.80129,-12.19894 1.03681,-3.17615 0.68955,-121.42002 -0.35761,-121.76891 -0.5506,-0.18344 -0.4962,-0.61693 0.2133,-1.69977 0.75771,-1.1564 0.86541,-2.31968 0.52687,-5.69074 l -0.42553,-4.23722 h -30.39365 c -16.71651,0 -30.51944,0.20377 -30.67317,0.45283 -0.15373,0.24906 -31.21128,0.28547 -69.01676,0.0809 -37.8055,-0.20455 -68.87311,-0.24991 -69.03915,-0.1008 -0.50473,0.4533 -0.64731,148.08139 -0.15633,161.86227 0.25202,7.07368 0.23415,13.08492 -0.0397,13.35831 -1.07337,1.07149 4.94683,1.36903 24.95076,1.23312 11.4566,-0.0778 22.8,-0.1054 25.20755,-0.0613 l 4.37736,0.0803 v 17.95849 17.95849 l 17.97456,-17.96707 17.97456,-17.96707 33.59047,10e-4 z"
     id="path846"
     inkscape:connector-curvature="0"
     transform="scale(0.26458333)" />
  <path
     style="opacity:1;fill:#ffffff;fill-opacity:1;stroke:none;stroke-width:0.68459368;stroke-linecap:butt;stroke-linejoin:round;stroke-miterlimit:4;stroke-dasharray:none;stroke-opacity:1;paint-order:normal"
     d="m 241.81132,258.15909 c -3.65283,-0.23961 -7.08229,-0.47022 -7.62102,-0.51247 -0.84848,-0.0665 -1.02972,-1.5105 -1.35478,-10.79379 -0.60985,-17.41643 -0.63185,-26.62592 -0.10749,-45.00485 l 0.49591,-17.38221 12.14275,0.27462 c 6.67851,0.15104 12.75201,0.32643 13.49667,0.38976 l 1.35392,0.11514 -1.3004,1.82624 -1.3004,1.82624 0.38021,34.63791 0.38021,34.6379 -3.75449,0.008 c -2.06497,0.005 -4.29788,0.0993 -4.96203,0.21057 -0.66415,0.11129 -4.19623,0.006 -7.84906,-0.23331 z"
     id="path848"
     inkscape:connector-curvature="0"
     transform="scale(0.26458333)" />
  <path
     style="opacity:1;fill:#ffffff;fill-opacity:1;stroke:none;stroke-width:0.68459368;stroke-linecap:butt;stroke-linejoin:round;stroke-miterlimit:4;stroke-dasharray:none;stroke-opacity:1;paint-order:normal"
     d="m 310.18868,258.32555 -10.11321,-0.18116 V 221.3288 184.51321 h 10.24314 10.24315 l 2.06298,-1.81132 c 2.43265,-2.1359 3.59065,-2.41906 1.71115,-0.41842 -1.04284,1.11005 -1.15617,1.54522 -0.55808,2.14296 0.57737,0.57704 0.79142,9.08421 0.92791,36.87843 l 0.17741,36.12837 -1.92789,0.67206 c -1.06034,0.36964 -2.09112,0.61117 -2.29062,0.53675 -0.1995,-0.0744 -4.91368,-0.21684 -10.47594,-0.31649 z"
     id="path850"
     inkscape:connector-curvature="0"
     transform="scale(0.26458333)" />
</svg>
